<?xml version="1.0" encoding="utf-8"?>
<svg version="1.1" xmlns:xlink="http://www.w3.org/1999/xlink" width="32px" height="32px" xmlns="http://www.w3.org/2000/svg">
  <defs>
    <path d="M 0 0  L 36 0  L 36 36  L 0 36  Z " fill-rule="evenodd" fill="black" id="path1" />
    <clipPath id="clip2">
      <use xlink:href="#path1" />
    </clipPath>
    <filter x="-50.00%" y="-50.00%" width="200.00%" height="200.00%" filterUnits="objectBoundingBox" id="filter3">
      <feColorMatrix type="matrix" values="1 0 0 0 0  0 1 0 0 0  0 0 1 0 0  0 0 0 1 0  " in="SourceGraphic" />
    </filter>
  </defs>
  <g transform="matrix(1 0 0 1 -1544 -19 )">
    <g transform="matrix(0.8888888888888888 0 0 0.8888888888888888 1544 19 )" clip-path="url(#clip2)" filter="url(#filter3)">
      <mask id=":r1mp:" maskUnits="userSpaceOnUse" x="0" y="0" width="36" height="36">
        <rect width="36" height="36" rx="72" fill="#FFFFFF"></rect>
      </mask>
      <g mask="url(#:r1mp:)">
        <rect width="36" height="36" fill="#0c0636"></rect>
        <rect x="0" y="0" width="36" height="36" transform="translate(7 7) rotate(297 18 18) scale(1)" fill="#059b9a" rx="6"></rect>
        <g transform="translate(3.5 3.5) rotate(7 18 18)">
          <path d="M13,19 a1,0.75 0 0,0 10,0" fill="#FFFFFF"></path>
          <rect x="12" y="14" width="1.5" height="2" rx="1" stroke="none" fill="#FFFFFF"></rect>
          <rect x="22" y="14" width="1.5" height="2" rx="1" stroke="none" fill="#FFFFFF"></rect>
        </g>
      </g>
    </g>
  </g>
</svg>